# xmcd
#
# Track frame offsets: 
#        150
#        16921
#        27051
#        37382
#        47002
#        62577
#        77114
#        82249
#        88085
#        109564
#        127510
#        140351
#        155987
#        164291
#        172536
#        182640
#        195993
#
# Disc length: 2846 seconds
#
# Revision: 1
# Processed by: cddbd v1.5.2PL0 Copyright (c) Steve Scherf et al.
# Submitted via: ExactAudioCopy v0.90b4
#
DISCID=cf0b1c11
DTITLE=The Pack A.D. - Tintype
DYEAR=2007
DGENRE=Rock
TTITLE0=Gold Rush
TTITLE1=All Damn Day Long
TTITLE2=Snow
TTITLE3=This Terror
TTITLE4=Stray
TTITLE5=Pilot's Blues
TTITLE6=Hardtack Saloon #1
TTITLE7=What's Up There
TTITLE8=Bang
TTITLE9=Paper Bag
TTITLE10=Got Up
TTITLE11=Cabin
TTITLE12=Hardtack Saloon #3
TTITLE13=Buyin' My Way
TTITLE14=Walk On
TTITLE15=Hardtack Saloon #2
TTITLE16=Bone Handle
EXTD=
EXTT0=
EXTT1=
EXTT2=
EXTT3=
EXTT4=
EXTT5=
EXTT6=
EXTT7=
EXTT8=
EXTT9=
EXTT10=
EXTT11=
EXTT12=
EXTT13=
EXTT14=
EXTT15=
EXTT16=
PLAYORDER=
